<svg xmlns="http://www.w3.org/2000/svg" viewBox="0 0 500 500"><g id="freepik--Window--inject-216"><polygon points="392.54 24.36 318.27 24.36 317.29 34.57 392.54 34.57 392.54 24.36" style="fill:none;stroke:#b2b2b2;stroke-miterlimit:10"></polygon><polygon points="392.54 34.57 318.27 34.57 317.29 44.78 392.54 44.78 392.54 34.57" style="fill:none;stroke:#b2b2b2;stroke-miterlimit:10"></polygon><polygon points="392.54 44.78 318.27 44.78 317.29 54.99 392.54 54.99 392.54 44.78" style="fill:none;stroke:#b2b2b2;stroke-miterlimit:10"></polygon><polygon points="392.54 54.99 318.27 54.99 317.29 65.2 392.54 65.2 392.54 54.99" style="fill:none;stroke:#b2b2b2;stroke-miterlimit:10"></polygon><polygon points="392.54 65.2 318.27 65.2 317.29 75.41 392.54 75.41 392.54 65.2" style="fill:none;stroke:#b2b2b2;stroke-miterlimit:10"></polygon><polygon points="392.54 75.41 318.27 75.41 317.29 85.62 392.54 85.62 392.54 75.41" style="fill:none;stroke:#b2b2b2;stroke-miterlimit:10"></polygon><polygon points="392.54 85.62 318.27 85.62 317.29 95.83 392.54 95.83 392.54 85.62" style="fill:none;stroke:#b2b2b2;stroke-miterlimit:10"></polygon><polygon points="392.54 95.83 318.27 95.83 317.29 106.04 392.54 106.04 392.54 95.83" style="fill:none;stroke:#b2b2b2;stroke-miterlimit:10"></polygon><polygon points="392.54 106.04 318.27 106.04 317.29 116.25 392.54 116.25 392.54 106.04" style="fill:none;stroke:#b2b2b2;stroke-miterlimit:10"></polygon><polygon points="392.54 116.25 318.27 116.25 317.29 126.46 392.54 126.46 392.54 116.25" style="fill:none;stroke:#b2b2b2;stroke-miterlimit:10"></polygon><polygon points="392.54 126.46 318.27 126.46 317.29 136.67 392.54 136.67 392.54 126.46" style="fill:none;stroke:#b2b2b2;stroke-miterlimit:10"></polygon><polygon points="392.54 136.67 318.27 136.67 317.29 146.88 392.54 146.88 392.54 136.67" style="fill:none;stroke:#b2b2b2;stroke-miterlimit:10"></polygon><polygon points="392.54 146.88 318.27 146.88 317.29 157.1 392.54 157.1 392.54 146.88" style="fill:none;stroke:#b2b2b2;stroke-miterlimit:10"></polygon><polygon points="392.54 157.1 318.27 157.1 317.29 167.31 392.54 167.31 392.54 157.1" style="fill:none;stroke:#b2b2b2;stroke-miterlimit:10"></polygon><polygon points="392.54 167.31 318.27 167.31 317.29 177.52 392.54 177.52 392.54 167.31" style="fill:none;stroke:#b2b2b2;stroke-miterlimit:10"></polygon><polygon points="468.89 24.36 394.62 24.36 393.63 34.57 468.89 34.57 468.89 24.36" style="fill:none;stroke:#b2b2b2;stroke-miterlimit:10"></polygon><polygon points="468.89 34.57 394.62 34.57 393.63 44.78 468.89 44.78 468.89 34.57" style="fill:none;stroke:#b2b2b2;stroke-miterlimit:10"></polygon><polygon points="468.89 44.78 394.62 44.78 393.63 54.99 468.89 54.99 468.89 44.78" style="fill:none;stroke:#b2b2b2;stroke-miterlimit:10"></polygon><polygon points="468.89 54.99 394.62 54.99 393.63 65.2 468.89 65.2 468.89 54.99" style="fill:none;stroke:#b2b2b2;stroke-miterlimit:10"></polygon><polygon points="468.89 65.2 394.62 65.2 393.63 75.41 468.89 75.41 468.89 65.2" style="fill:none;stroke:#b2b2b2;stroke-miterlimit:10"></polygon><polygon points="468.89 75.41 394.62 75.41 393.63 85.62 468.89 85.62 468.89 75.41" style="fill:none;stroke:#b2b2b2;stroke-miterlimit:10"></polygon><polygon points="468.89 85.62 394.62 85.62 393.63 95.83 468.89 95.83 468.89 85.62" style="fill:none;stroke:#b2b2b2;stroke-miterlimit:10"></polygon><polygon points="468.89 95.83 394.62 95.83 393.63 106.04 468.89 106.04 468.89 95.83" style="fill:none;stroke:#b2b2b2;stroke-miterlimit:10"></polygon><polygon points="468.89 106.04 394.62 106.04 393.63 116.25 468.89 116.25 468.89 106.04" style="fill:none;stroke:#b2b2b2;stroke-miterlimit:10"></polygon><polygon points="468.89 116.25 394.62 116.25 393.63 126.46 468.89 126.46 468.89 116.25" style="fill:none;stroke:#b2b2b2;stroke-miterlimit:10"></polygon><polygon points="468.89 126.46 394.62 126.46 393.63 136.67 468.89 136.67 468.89 126.46" style="fill:none;stroke:#b2b2b2;stroke-miterlimit:10"></polygon><polygon points="468.89 136.67 394.62 136.67 393.63 146.88 468.89 146.88 468.89 136.67" style="fill:none;stroke:#b2b2b2;stroke-miterlimit:10"></polygon><polygon points="468.89 146.88 394.62 146.88 393.63 157.1 468.89 157.1 468.89 146.88" style="fill:none;stroke:#b2b2b2;stroke-miterlimit:10"></polygon><polygon points="468.89 157.1 394.62 157.1 393.63 167.31 468.89 167.31 468.89 157.1" style="fill:none;stroke:#b2b2b2;stroke-miterlimit:10"></polygon><polygon points="468.89 167.31 394.62 167.31 393.63 177.52 468.89 177.52 468.89 167.31" style="fill:none;stroke:#b2b2b2;stroke-miterlimit:10"></polygon><rect x="315.55" y="16.45" width="157.05" height="7.7" style="fill:none;stroke:#b2b2b2;stroke-miterlimit:10"></rect><line x1="472.61" y1="24.15" x2="472.61" y2="159.81" style="fill:none;stroke:#b2b2b2;stroke-miterlimit:10"></line><line x1="470.89" y1="24.37" x2="470.89" y2="117.44" style="fill:none;stroke:#b2b2b2;stroke-miterlimit:10"></line><rect x="471.61" y="159.51" width="2.11" height="3.46" style="fill:#263238;stroke:#b2b2b2;stroke-miterlimit:10"></rect><rect x="469.7" y="116.7" width="2.11" height="3.46" style="fill:#263238;stroke:#b2b2b2;stroke-miterlimit:10"></rect></g><g id="freepik--character-2--inject-216"><path d="M292.86,157.09S266.1,167.25,262,171s-27.77,79.95-27.77,79.95h165S387,199.77,384,182.49s-16.26-21-23-22.36S292.86,157.09,292.86,157.09Z" style="fill:#263238;stroke:#263238;stroke-linecap:round;stroke-linejoin:round"></path><polygon points="337.92 171.54 334.38 250.92 362.99 250.92 351.49 164.59 337.92 171.54" style="fill:#92E3A9;stroke:#263238;stroke-linecap:round;stroke-linejoin:round"></polygon><path d="M295.14,150.43s-4.42,6.49-3.54,8.56,10.92,17.7,20.95,19.47,22.71-3.84,29.5-8,15.63-7.37,17.1-8.26-3.83-8-6.19-9.14-5.31-3-5.31-3-3.24-4.13-3.83-5-.89-2.36-1.77-3.54a3.94,3.94,0,0,0-2.95-1.77c-1.48-.29-3.54,7.08-12.39,8.56s-30.39,2.36-30.39,2.36Z" style="fill:#92E3A9;stroke:#263238;stroke-linecap:round;stroke-linejoin:round"></path><path d="M322.58,178.46s17.11-8.56,19.17-15.34,2.07-18,2.07-18" style="fill:none;stroke:#263238;stroke-linecap:round;stroke-linejoin:round"></path><path d="M335.56,171.08s7.37-3.24,9.73-7.67,2.36-13.27,2.36-13.27" style="fill:none;stroke:#263238;stroke-linecap:round;stroke-linejoin:round"></path><path d="M285.65,113.76c-.32,1.2,6.59,35.46,11.54,44.12s15.25,13.6,21.44,10.72c7.16-3.35,15.05-9.92,18.47-17.21.63-1.35,4.12-15.94,3.38-16.19,0,0,4.95,1.65,7-7.42s3.71-14.43,1.24-19.38S332.24,91.91,319.45,94,287.71,105.93,285.65,113.76Z" style="fill:#fff;stroke:#263238;stroke-linecap:round;stroke-linejoin:round"></path><path d="M319.87,103s-18.14,14-30.51,15.26S277,113.76,277,113.76s-16.08,4.54-14.43-7.83S289,83.66,289,83.66s-8.66-2.47-4.54-7,19.79-9.49,30.1-8.25,14.84,3.71,14.84,3.71-2.89-7.42,3.3-5S344.19,81.6,344.19,81.6s10.72.83,11.55,3.71S349.55,89,349.55,89s6.6,12.37,3.3,19.38-10.31,9.07-10.72,10.31,1.24,5.77-2.06,4.12-4.54-8.66-4.54-8.66-4.94-4.94-5.36-7-.82-4.53-.82-4.53-2.89,8.66-9.48,9.89S319.87,103,319.87,103Z" style="fill:#263238;stroke:#263238;stroke-linecap:round;stroke-linejoin:round"></path><path d="M305,132.73s-8.24,18.14-3.71,18.55,8.66-4.54,8.66-4.54" style="fill:#fff;stroke:#263238;stroke-linecap:round;stroke-linejoin:round"></path><path d="M305.44,154.17s5.36,5.77,15.25-2.07" style="fill:none;stroke:#263238;stroke-linecap:round;stroke-linejoin:round"></path><path d="M316.24,136.35s1,3.73,8.47,3.05" style="fill:none;stroke:#263238;stroke-linecap:round;stroke-linejoin:round"></path><path d="M300.65,135.67s-2.37,3.05-5.08,3.05" style="fill:none;stroke:#263238;stroke-linecap:round;stroke-linejoin:round"></path><path d="M332.38,127s-19.11-.41-21.17.42-2.47,5.77-1.24,9.07,4.13,7.83,11.55,7.83,11.13-3.71,13.6-10.72S332.38,127,332.38,127Z" style="fill:none;stroke:#263238;stroke-linecap:round;stroke-linejoin:round"></path><path d="M285.22,127s14.71-.41,16.3.42,1.9,5.77,1,9.07-3.18,7.83-8.89,7.83-8.57-3.71-10.47-10.72S285.22,127,285.22,127Z" style="fill:none;stroke:#263238;stroke-linecap:round;stroke-linejoin:round"></path><line x1="336.02" y1="129.33" x2="342.3" y2="121.03" style="fill:none;stroke:#263238;stroke-linecap:round;stroke-linejoin:round"></line><line x1="311.21" y1="127.37" x2="301.42" y2="127.37" style="fill:none;stroke:#263238;stroke-linecap:round;stroke-linejoin:round"></line><line x1="308.7" y1="131.35" x2="302.63" y2="131.35" style="fill:none;stroke:#263238;stroke-linecap:round;stroke-linejoin:round"></line><line x1="283" y1="128.92" x2="287.66" y2="125.89" style="fill:none;stroke:#263238;stroke-linecap:round;stroke-linejoin:round"></line><path d="M320.81,134.36c0,1.54-.73,2.8-1.63,2.8s-1.62-1.26-1.62-2.8.73-2.8,1.62-2.8S320.81,132.81,320.81,134.36Z" style="fill:#263238"></path><path d="M299.27,133.18c0,1.55-.72,2.8-1.62,2.8s-1.62-1.25-1.62-2.8.73-2.8,1.62-2.8S299.27,131.63,299.27,133.18Z" style="fill:#263238"></path><path d="M291.6,123.59s5.9-2.36,8.85-.59" style="fill:none;stroke:#263238;stroke-linecap:round;stroke-linejoin:round;stroke-width:2px"></path><path d="M314,123.3a16.39,16.39,0,0,1,12.1,1.18" style="fill:none;stroke:#263238;stroke-linecap:round;stroke-linejoin:round;stroke-width:2px"></path><path d="M219.75,241.05a18.36,18.36,0,0,0-14.91-2c-8.13,2.37-12.19,9.49-12.19,11.86h34.21A14.85,14.85,0,0,0,219.75,241.05Z" style="fill:gray;stroke:#263238;stroke-linecap:round;stroke-linejoin:round"></path><path d="M198.74,232.92s-4.4,6.44-4.4,8.81-2.37,4.74,1,5.76,5.42-10.84,5.42-12.19S198.74,232.92,198.74,232.92Z" style="fill:#fff;stroke:#263238;stroke-linecap:round;stroke-linejoin:round"></path><path d="M204.84,232.58s-4.74-1-6.1.34-3.72,13.22-3.38,14.57,3.72,1.69,4.74.34S204.84,232.58,204.84,232.58Z" style="fill:#fff;stroke:#263238;stroke-linecap:round;stroke-linejoin:round"></path><path d="M225.17,238s-14.23-5.09-17.28-7.12-4.74,2-5.76,4.41-3.39,10.84-3.39,13.21,3.73,3.38,4.41.67,6.1-11.51,6.1-11.51l7.11,2.71s.68,1-2.37,3.05-7.45,6.43-6.1,7.11,5.42.34,6.78-1,8.46-3.05,8.46-3.05,6.44,4.07,7.8,4.41,9.82-1.36,9.82-1.36-9.49-8.13-10.84-9.14A29.12,29.12,0,0,0,225.17,238Z" style="fill:#fff;stroke:#263238;stroke-linecap:round;stroke-linejoin:round"></path><path d="M353.5,232.74h-7.11c-3.05,0-9.15-2-9.49,1.35s6.78,5.42,10.16,5.42,5.42-1.35,9.49.68,6.44,3.39,6.44,3.39l-4.75-7.46Z" style="fill:#fff;stroke:#263238;stroke-linecap:round;stroke-linejoin:round"></path><path d="M381.62,250.35s-6.44-13.89-9.49-18.29-21-7.79-23-7.79-7.12,11.18-6.44,13.89,2-.34,3-2,4.74-6.43,4.74-6.43,5.76,9.48,8.13,14.56,7.12,5.76,9.83,6.44S381.62,250.35,381.62,250.35Z" style="fill:#fff;stroke:#263238;stroke-linecap:round;stroke-linejoin:round"></path><path d="M365,230s-6.44-8.47-9.83-7.12-8.8,17.62-9.48,19.65,3.39.68,4.06-1,6.78-10.5,6.78-10.5l5.42,3.39" style="fill:#fff;stroke:#263238;stroke-linecap:round;stroke-linejoin:round"></path><path d="M369.76,230s-6.77-5.76-9.15-5.09-10.84,17.28-9.48,18,4.06-.68,5.42-2.71,4.06-6.78,4.06-6.78l5.09,3.73" style="fill:#fff;stroke:#263238;stroke-linecap:round;stroke-linejoin:round"></path><path d="M373.07,234.66s-3.31-6.67-5.68-5.65-10.5,13.55-8.13,13.55,9.49-7.45,9.49-7.45-.68,5.76,0,8.8" style="fill:#fff;stroke:#263238;stroke-linecap:round;stroke-linejoin:round"></path><rect x="274.69" y="248.17" width="88.89" height="2.75" transform="translate(638.26 499.09) rotate(180)" style="fill:gray;stroke:#263238;stroke-linecap:round;stroke-linejoin:round"></rect><polygon points="209.79 190.35 299.07 190.35 317.16 250.92 227.88 250.92 209.79 190.35" style="fill:gray;stroke:#263238;stroke-linecap:round;stroke-linejoin:round"></polygon><line x1="172.24" y1="250.92" x2="487.67" y2="250.92" style="fill:none;stroke:#263238;stroke-linecap:round;stroke-linejoin:round"></line></g></svg>